HIERARCHY
ROOT Hips
{
	OFFSET 0.00000 0.00000 0.00000
	CHANNELS 6 Xposition Yposition Zposition Zrotation Yrotation Xrotation 
	JOINT LHipJoint
	{
		OFFSET 0 0 0
		CHANNELS 3 Zrotation Yrotation Xrotation
		JOINT LeftUpLeg
		{
			OFFSET 1.85742 -1.74412 1.01653
			CHANNELS 3 Zrotation Yrotation Xrotation
			JOINT LeftLeg
			{
				OFFSET 2.54803 -7.00067 0.00000
				CHANNELS 3 Zrotation Yrotation Xrotation
				JOINT LeftFoot
				{
					OFFSET 2.51202 -6.90173 0.00000
					CHANNELS 3 Zrotation Yrotation Xrotation
					JOINT LeftToeBase
					{
						OFFSET 0.17547 -0.48209 1.64281
						CHANNELS 3 Zrotation Yrotation Xrotation
						End Site
						{
							OFFSET 0.00000 -0.00000 0.86587
						}
					}
				}
			}
		}
	}
	JOINT RHipJoint
	{
		OFFSET 0 0 0
		CHANNELS 3 Zrotation Yrotation Xrotation
		JOINT RightUpLeg
		{
			OFFSET -1.95533 -1.74413 1.01654
			CHANNELS 3 Zrotation Yrotation Xrotation
			JOINT RightLeg
			{
				OFFSET -2.49465 -6.85400 0.00000
				CHANNELS 3 Zrotation Yrotation Xrotation
				JOINT RightFoot
				{
					OFFSET -2.54783 -7.00010 0.00000
					CHANNELS 3 Zrotation Yrotation Xrotation
					JOINT RightToeBase
					{
						OFFSET -0.18513 -0.50864 1.69288
						CHANNELS 3 Zrotation Yrotation Xrotation
						End Site
						{
							OFFSET -0.00000 -0.00000 0.89242
						}
					}
				}
			}
		}
	}
	JOINT LowerBack
	{
		OFFSET 0 0 0
		CHANNELS 3 Zrotation Yrotation Xrotation
		JOINT Spine
		{
			OFFSET 0.02173 2.16290 -0.15998
			CHANNELS 3 Zrotation Yrotation Xrotation
			JOINT Spine1
			{
				OFFSET 0.00940 2.17323 -0.00467
				CHANNELS 3 Zrotation Yrotation Xrotation
				JOINT Neck
				{
					OFFSET 0 0 0
					CHANNELS 3 Zrotation Yrotation Xrotation
					JOINT Neck1
					{
						OFFSET 0.01475 1.85823 0.31113
						CHANNELS 3 Zrotation Yrotation Xrotation
						JOINT Head
						{
							OFFSET 0.01902 1.88783 -0.37187
							CHANNELS 3 Zrotation Yrotation Xrotation
							End Site
							{
								OFFSET 0.00489 1.93211 -0.16169
							}
						}
					}
				}
				JOINT LeftShoulder
				{
					OFFSET 0 0 0
					CHANNELS 3 Zrotation Yrotation Xrotation
					JOINT LeftArm
					{
						OFFSET 3.34199 1.32384 -0.07862
						CHANNELS 3 Zrotation Yrotation Xrotation
						JOINT LeftForeArm
						{
							OFFSET 5.27950 -0.00000 0.00000
							CHANNELS 3 Zrotation Yrotation Xrotation
							JOINT LeftHand
							{
								OFFSET 3.53504 -0.00000 0.00000
								CHANNELS 3 Zrotation Yrotation Xrotation
								JOINT LeftFingerBase
								{
									OFFSET 0 0 0
									CHANNELS 3 Zrotation Yrotation Xrotation
									JOINT LeftHandIndex1
									{
										OFFSET 0.66795 -0.00000 0.00000
										CHANNELS 3 Zrotation Yrotation Xrotation
										End Site
										{
											OFFSET 0.53852 -0.00000 0.00000
										}
									}
								}
								JOINT LThumb
								{
									OFFSET 0 0 0
									CHANNELS 3 Zrotation Yrotation Xrotation
									End Site
									{
										OFFSET 0.54674 -0.00000 0.54674
									}
								}
							}
						}
					}
				}
				JOINT RightShoulder
				{
					OFFSET 0 0 0
					CHANNELS 3 Zrotation Yrotation Xrotation
					JOINT RightArm
					{
						OFFSET -3.16149 1.45719 -0.50507
						CHANNELS 3 Zrotation Yrotation Xrotation
						JOINT RightForeArm
						{
							OFFSET -5.25035 -0.00000 0.00000
							CHANNELS 3 Zrotation Yrotation Xrotation
							JOINT RightHand
							{
								OFFSET -3.58884 -0.00000 0.00000
								CHANNELS 3 Zrotation Yrotation Xrotation
								JOINT RightFingerBase
								{
									OFFSET 0 0 0
									CHANNELS 3 Zrotation Yrotation Xrotation
									JOINT RightHandIndex1
									{
										OFFSET -0.77924 -0.00000 0.00000
										CHANNELS 3 Zrotation Yrotation Xrotation
										End Site
										{
											OFFSET -0.62824 -0.00000 0.00000
										}
									}
								}
								JOINT RThumb
								{
									OFFSET 0 0 0
									CHANNELS 3 Zrotation Yrotation Xrotation
									End Site
									{
										OFFSET -0.63783 -0.00000 0.63783
									}
								}
							}
						}
					}
				}
			}
		}
	}
}
MOTION
Frames: 7
Frame Time: 0.0384615
0.00 0.00 0.00 -153.5890 86.8855 -146.5130 0.0000 0.0000 0.0000 -15.4506 -25.8858 -12.6962 2.5006 9.8389 28.4567 0.6746 7.3925 -19.9255 2.4070 -9.6668 -27.9043 0.0000 0.0000 0.0000 23.7664 23.4791 0.3145 -0.9950 -6.3483 17.7985 1.6372 -31.6226 -36.4368 -1.1171 -6.7143 18.8718 1.5383 1.8293 2.3772 0.3268 2.5219 -1.9317 -0.6548 1.2295 -3.2662 0.1375 -1.0946 -22.0484 4.0414 -2.4369 32.5631 1.2742 -0.1417 15.1383 -0.0000 0.0000 0.0000 -34.4861 18.8105 53.8339 126.1737 -54.4268 -90.7410 -0.0000 0.0000 -23.9156 -48.2569 63.1675 -45.0004 -7.1250 0.0000 -0.0000 -82.6412 -60.1714 116.0822 -0.0000 0.0000 0.0000 31.4911 -23.3450 48.1507 -107.3295 58.8343 -74.9490 0.0000 -0.0000 -32.8139 55.0319 10.8921 15.1193 7.1250 -0.0000 -0.0000 42.3316 2.3069 67.5486
0.00 0.00 0.00 -155.7310 86.8099 -148.5350 0.0000 0.0000 0.0000 -15.4545 -25.7431 -12.8877 2.4786 9.7989 28.3279 0.6766 7.0789 -19.6944 2.3851 -9.6260 -27.7738 0.0000 0.0000 0.0000 23.6074 23.4115 0.1300 -0.9916 -6.3377 17.7673 1.6377 -31.6118 -36.4145 -1.1423 -6.7871 19.0860 1.5727 1.7994 2.5728 0.3421 2.4835 -1.7695 -0.6600 1.2101 -3.2092 0.1542 -1.1641 -22.4409 4.0525 -2.5820 32.3277 1.2410 -0.2100 15.1221 0.0000 0.0000 0.0000 -35.5859 19.5127 59.3800 107.8898 -58.7555 -75.4282 -0.0000 0.0000 -1.9675 -41.2956 63.9098 -38.2692 -7.1250 0.0000 -0.0000 -83.0904 -61.7707 114.2989 0.0000 0.0000 0.0000 32.4997 -24.3979 52.1318 -93.5320 59.9528 -63.0584 0.0000 -0.0000 -18.6162 54.3023 8.8439 12.0777 7.1250 -0.0000 -0.0000 42.2587 -0.7186 64.6438
0.00 0.00 0.00 -155.8910 86.7985 -148.5760 0.0000 0.0000 0.0000 -15.4362 -25.7370 -12.9988 2.4700 9.7831 28.2772 0.6713 7.0718 -19.6346 2.3938 -9.6421 -27.8254 0.0000 0.0000 0.0000 23.5330 23.4477 0.0285 -0.9906 -6.3348 17.7588 1.6602 -31.6573 -36.3732 -1.1237 -6.7333 18.9277 1.6684 1.7692 2.7676 0.3728 2.4481 -1.6036 -0.6834 1.1913 -3.1460 0.1187 -1.1185 -22.5388 4.2433 -2.5896 31.7109 1.3081 -0.2148 14.8653 -0.0000 0.0000 0.0000 -38.5659 20.3981 55.9833 83.1551 -59.8222 -54.0757 -0.0000 -0.0000 3.7427 -29.2748 66.9833 -27.2922 -7.1250 0.0000 -0.0000 -89.7807 -65.3808 117.0321 -0.0000 0.0000 0.0000 34.0140 -25.3986 52.0745 -74.7380 59.1013 -46.8226 0.0000 -0.0000 -5.0767 44.7493 5.4189 5.3481 7.1250 -0.0000 -0.0000 42.1291 -15.6370 44.1028
0.00 0.00 0.00 -153.7810 86.8852 -146.2980 0.0000 0.0000 0.0000 -15.3267 -25.9125 -13.0398 2.4695 9.7823 28.2746 0.6787 7.2332 -19.8385 2.3651 -9.5883 -27.6536 0.0000 0.0000 0.0000 23.5647 23.6718 -0.0329 -0.9894 -6.3309 17.7475 1.6594 -31.7017 -36.4583 -1.1109 -6.6961 18.8182 1.6605 1.7823 3.1588 0.3556 2.4710 -1.5374 -0.7105 1.2008 -3.2973 0.6433 -1.0459 -22.3307 4.0918 -2.6406 30.9755 1.1260 -0.2243 14.4791 -0.0000 -0.0000 0.0000 -44.4666 20.7262 36.9592 48.6174 -52.4224 -25.0742 -0.0000 0.0000 -5.5459 6.4413 71.0725 6.0957 -7.1250 0.0000 -0.0000 -113.1837 -72.0702 131.3945 -0.0000 -0.0000 0.0000 37.2733 -25.2825 42.8499 -43.0879 49.7966 -20.7678 0.0000 -0.0000 -4.1867 8.9929 -1.6175 -0.2560 7.1250 -0.0000 -0.0000 27.5007 -30.6825 10.7623
0.00 0.00 0.00 -123.2760 88.3630 -115.3780 0.0000 0.0000 0.0000 -15.8822 -25.5864 -12.3053 2.5322 9.8962 28.6413 0.7668 8.3711 -21.6229 2.2439 -9.3567 -26.9176 0.0000 0.0000 0.0000 23.6608 25.5419 1.1329 -0.9821 -6.3081 17.6811 1.7496 -32.0879 -36.6688 -0.9074 -6.0702 16.9882 0.3977 1.6646 2.7385 -0.0370 2.2522 -2.3439 -0.3983 1.1142 -3.9310 0.4567 -0.9000 -21.2340 3.8965 -2.2090 31.9793 1.1828 -0.0567 14.6734 -0.0000 -0.0000 0.0000 -44.8314 11.5836 -32.2435 129.5057 -53.1929 -93.4306 -0.0000 0.0000 -96.1128 -46.1993 51.4029 -39.1791 -7.1250 0.0000 -0.0000 -96.9513 56.5089 -57.4204 -0.0000 -0.0000 0.0000 41.3203 -21.0450 2.1891 -109.8812 58.4525 -77.1281 0.0000 -0.0000 -69.0686 -25.5152 23.3260 -10.7023 7.1250 -0.0000 -0.0000 2.2360 -4.4576 2.0571
0.00 0.00 0.00 -75.0067 86.0140 -67.6252 0.0000 0.0000 0.0000 -17.3960 -16.9178 -11.7183 2.4399 9.7278 28.0998 1.1488 1.6820 -20.9204 1.3407 -7.3311 -20.7000 0.0000 0.0000 0.0000 20.4140 9.6516 -2.4015 -0.7731 -5.6143 15.6694 1.4152 -23.3187 -20.9109 -0.7554 5.5510 -15.4871 -0.7674 2.0972 3.3563 0.7463 2.8049 -2.4192 0.9971 1.4353 -4.4519 1.4124 -0.2311 -21.2114 1.1199 -0.7395 29.6791 0.1161 0.1879 13.5925 0.0000 -0.0000 0.0000 -68.8300 21.8496 1.7604 25.1461 -36.3530 -8.3764 -0.0000 0.0000 -57.2612 53.1150 59.5755 48.9687 -7.1250 0.0000 -0.0000 -170.1043 -79.3268 172.0971 0.0000 -0.0000 0.0000 57.8087 -18.7190 8.2056 -24.6132 35.8060 -8.0625 0.0000 -0.0000 -30.9886 -44.9333 7.5221 -7.4409 7.1250 -0.0000 -0.0000 -12.8549 -19.5438 -8.0166
0.00 0.00 0.00 -70.7273 83.6888 -64.9426 0.0000 0.0000 0.0000 -17.7660 -13.9160 -9.9064 2.0880 9.0470 25.9425 1.0408 -0.0309 -19.2821 0.7364 -5.4822 -15.2892 0.0000 0.0000 0.0000 17.1431 -4.4301 -15.5077 -2.6589 -10.1213 29.3705 0.0071 -6.5676 -9.1880 -3.3464 11.2358 -33.0793 0.6979 2.2140 4.8375 1.2421 3.0777 -2.1668 0.6144 1.5299 -4.9874 1.7973 -0.0734 -21.2842 0.5701 -0.4745 29.7611 -0.1209 0.2681 13.6393 -0.0000 -0.0000 0.0000 -71.8287 19.8559 13.6415 37.2958 -46.3836 -16.4539 -0.0000 0.0000 -69.7079 37.5435 59.4885 33.5091 -7.1250 0.0000 -0.0000 -127.4255 -82.6602 133.5066 -0.0000 -0.0000 0.0000 61.0334 -15.1055 16.9195 -30.8219 41.5875 -11.9514 0.0000 -0.0000 -32.0526 -44.4024 9.8301 -9.4922 7.1250 -0.0000 -0.0000 -12.0354 -16.5345 -8.2994
